<svg xmlns="http://www.w3.org/2000/svg" width="16" height="12" class="mdl-js"><g fill="none"><path fill="#EE3524" d="M3 0h13v8H3z"/><path fill="#00B185" d="M3 8h13v4H3z"/><path fill="#FFF" d="M0 0h3v12H0z"/><path fill="#EE3524" d="M1.7 1.51c0 .39.25.52.34.86h.1c.02-.1.33-.86.38-.86.14 0-.25-.95-.26-1.04H1.9c-.04.28-.18.42-.22.74h-.11C1.54.9 1.4.75 1.36.47h-.35C1 .57.61 1.5.75 1.5c.05 0 .36.75.39.86h.1c.08-.34.33-.47.34-.86h.11m0 8.98c.01-.39.26-.52.35-.86h.09c.03.1.34.86.4.86.13 0-.26.95-.27 1.05H1.9c-.04-.29-.18-.43-.22-.75h-.11c-.04.32-.18.46-.22.75H1c-.01-.1-.4-1.05-.26-1.05.05 0 .36-.75.39-.86h.1c.08.34.33.47.34.86h.11m.02-2.17c.03.4.23.56.31.92h.12c.08-.36.28-.48.36-.87.08-.4-.14-.67-.21-1.12h-.12c-.14.47-.13.63-.08 1.12h-.13c-.3-.93.14-1.1.22-1.99h.11c.05.36.18.66.28.97 0-.6 0-.97-.27-1.26V5.9c.27-.3.27-.67.27-1.26-.1.31-.23.6-.28.97h-.11c-.08-.89-.51-1.06-.22-2h.13c-.05.5-.06.66.08 1.13h.12c.06-.42.31-.65.28-1.12-.02-.28-.36-.55-.43-.88h-.12c-.08.37-.28.52-.3.92h-.16c-.03-.4-.24-.55-.31-.92h-.12c-.08.37-.28.5-.36.88-.08.4.14.67.21 1.12h.11c.14-.47.14-.63.09-1.12h.13c.3.93-.14 1.1-.22 1.99h-.1C.93 5.26.8 4.96.69 4.65c0 .6.01.97.28 1.26v.18c-.27.3-.28.66-.28 1.26.1-.31.24-.6.29-.97h.1c.09.89.52 1.06.23 2h-.13c.05-.5.05-.66-.09-1.14H.98c-.06.43-.32.66-.29 1.13.02.28.37.55.44.87h.12c.07-.36.28-.51.3-.92h.16"/><path fill="#FFF" d="M1.99 6.09v-.18c-.26-.25-.21-.29-.28-.71h-.15c-.07.42 0 .46-.26.7v.19c.26.25.19.29.26.71h.15c.07-.42.02-.46.28-.71z"/><path fill="#000" d="M15 11V1H3V0h13v12H3v-1h12z" opacity=".1"/><path fill="#000" d="M.5.5v11H3v.5H0V0h3v.5H.5z" opacity=".2"/></g></svg>