<svg width="56" height="56" fill="none" xmlns="http://www.w3.org/2000/svg"><g clip-path="url(#a)"><rect x="4" y="4" width="48" height="48" rx="24" fill="#fff"/><path fill-rule="evenodd" clip-rule="evenodd" d="m52 44.05-13.3-9.2-8.24 2.17-6.83 3.92L21.33 52H52v-7.95z" fill="#4E1BBC"/><path d="M4 52h1.22L4 46.15V52zM4 4h48v6.8L44.2 7a13.91 13.91 0 0 0-15.04 8.65l-11.62 4.91a14.23 14.23 0 0 0-13.54.8V4z" fill="#4E1BBC"/><path fill-rule="evenodd" clip-rule="evenodd" d="M4 46.9V25.5l6.6-2.66 25.66-10.39 5.4-2.18.87.37c3.25 1.8 6.48 4.86 9.47 8.4v25.44l-13.36-9.2a50.82 50.82 0 0 0-7.92 2.2c-2.2.9-4.7 2.4-6.8 3.79L21.77 52H4.97c-.35-1.64-.68-3.36-.97-5.1z" fill="#C4C4C4"/><path fill-rule="evenodd" clip-rule="evenodd" d="M4 46.9V25.5l6.6-2.66 25.66-10.39 5.4-2.18.87.37c3.25 1.8 6.48 4.86 9.47 8.4v25.44l-13.36-9.2a50.82 50.82 0 0 0-7.92 2.2c-2.2.9-4.7 2.4-6.8 3.79L21.77 52H4.97c-.35-1.64-.68-3.36-.97-5.1z" fill="url(#b)"/><path fill-rule="evenodd" clip-rule="evenodd" d="M4 47.13V25.52l14.56-5.9a15.73 15.73 0 0 1 7.35 8.1 15.58 15.58 0 0 1-8.47 20.34A15.39 15.39 0 0 1 4 47.13z" fill="url(#c)"/><path fill-rule="evenodd" clip-rule="evenodd" d="M52 11.7v21.57c-1.17.96-2.5 1.75-3.97 2.35a15.6 15.6 0 0 1-20.26-8.7 15.7 15.7 0 0 1-.36-10.88l19.86-8.05L52 11.7z" fill="url(#d)"/><path fill-rule="evenodd" clip-rule="evenodd" d="M4 45.7V20.99a14.45 14.45 0 1 1 0 24.73zm48-35.28v21.05a14.45 14.45 0 1 1 0-21.05z" fill="url(#e)"/><path d="M16.45 29.11A2.06 2.06 0 0 1 18 32.94l-3.83 1.55 1.55 3.82a2.06 2.06 0 0 1-3.83 1.55l-1.55-3.82-3.82 1.55a2.06 2.06 0 1 1-1.55-3.83l3.82-1.55-1.55-3.83a2.06 2.06 0 1 1 3.83-1.55l1.55 3.83 3.83-1.55z" fill="url(#f)"/><path fill-rule="evenodd" clip-rule="evenodd" d="M41 17.98a2.9 2.9 0 1 0-2.18-5.38A2.9 2.9 0 0 0 41 17.98zm-3.38 7.98a2.9 2.9 0 1 0-2.18-5.38 2.9 2.9 0 0 0 2.18 5.38zm12.96-8.38a2.9 2.9 0 1 1-5.38 2.18 2.9 2.9 0 0 1 5.38-2.18zM45.6 29.34a2.9 2.9 0 1 0-2.18-5.38 2.9 2.9 0 0 0 2.18 5.38z" fill="url(#g)"/></g><defs><linearGradient id="b" x1="23.01" y1="17.82" x2="38.63" y2="56.39" gradientUnits="userSpaceOnUse"><stop stop-color="#FFD86A"/><stop offset="1" stop-color="#FFB63C"/></linearGradient><linearGradient id="e" x1="21.36" y1="13.76" x2="32.21" y2="40.54" gradientUnits="userSpaceOnUse"><stop stop-color="#FFE688"/><stop offset="1" stop-color="#FFBC11"/><stop offset="1" stop-color="#FFA919"/></linearGradient><linearGradient id="f" x1="23.78" y1="18.35" x2="30.75" y2="35.56" gradientUnits="userSpaceOnUse"><stop stop-color="#444"/><stop offset="1" stop-color="#222"/></linearGradient><linearGradient id="g" x1="55.91" y1="4.08" x2="63.74" y2="23.42" gradientUnits="userSpaceOnUse"><stop stop-color="#444"/><stop offset="1" stop-color="#222"/></linearGradient><radialGradient id="c" cx="0" cy="0" r="1" gradientUnits="userSpaceOnUse" gradientTransform="rotate(67.75 -19.37 25.54) scale(15.2856)"><stop offset=".88" stop-color="#D1730C"/><stop offset="1" stop-color="#D1730C" stop-opacity="0"/></radialGradient><radialGradient id="d" cx="0" cy="0" r="1" gradientUnits="userSpaceOnUse" gradientTransform="rotate(67.75 5.18 42.13) scale(15.2598 15.3203)"><stop offset=".88" stop-color="#D1730C"/><stop offset="1" stop-color="#D1730C" stop-opacity="0"/></radialGradient><clipPath id="a"><circle cx="28" cy="28" r="24"/></clipPath></defs></svg>