<svg width="56" height="56" fill="none" xmlns="http://www.w3.org/2000/svg"><g clip-path="url(#a)"><path fill-rule="evenodd" clip-rule="evenodd" d="m25.81 41.41-7.61-7.6L4 48V4h48v40.64L37.4 29 25.81 41.41z" fill="url(#b)"/><path fill-rule="evenodd" clip-rule="evenodd" d="M4 47v5h33.4L18.2 32.8 4 47z" fill="url(#c)"/><path fill-rule="evenodd" clip-rule="evenodd" d="m15 52 22.4-24L52 43.64V53H4v-1h11z" fill="url(#d)"/><path d="M20 26a6 6 0 1 0 0-12 6 6 0 0 0 0 12z" fill="#FC4714"/></g><defs><linearGradient id="b" x1="52" y1="52" x2="6.6" y2="1.66" gradientUnits="userSpaceOnUse"><stop stop-color="#FC0"/><stop offset="1" stop-color="#FFE26D"/></linearGradient><linearGradient id="c" x1="18.2" y1="32.8" x2="18.2" y2="52" gradientUnits="userSpaceOnUse"><stop stop-color="#655517"/><stop offset="1" stop-color="#010101"/></linearGradient><linearGradient id="d" x1="36.93" y1="7" x2="35.41" y2="41.93" gradientUnits="userSpaceOnUse"><stop stop-opacity=".4"/><stop offset="1"/></linearGradient><clipPath id="a"><circle cx="28" cy="28" r="24"/></clipPath></defs></svg>