<svg xmlns="http://www.w3.org/2000/svg" width="16" height="12" class="mdl-js"><g fill="none" fill-rule="evenodd"><g fill-rule="nonzero"><path fill="#0093C1" d="M0 0h16v12H0z"/><g fill="#FFF200" transform="translate(2)"><path d="M7.34 7.68a3.46 3.46 0 0 1-3.4-2.89 3.46 3.46 0 1 0 6.81 0 3.46 3.46 0 0 1-3.41 2.89"/><path d="M9.65 4.5a2.31 2.31 0 1 1-4.62 0 2.31 2.31 0 0 1 4.62 0"/><circle cx=".92" cy="10.97" r="1"/><circle cx=".92" cy="8.98" r="1"/><circle cx=".92" cy="6.98" r="1"/><circle cx=".92" cy="4.99" r="1"/><circle cx=".92" cy="2.99" r="1"/><circle cx=".92" cy=".99" r="1"/></g></g><path stroke="#000" opacity=".1" d="M.5.5h15v11H.5z"/></g></svg>