<svg width="56" height="56" fill="none" xmlns="http://www.w3.org/2000/svg"><path fill-rule="evenodd" clip-rule="evenodd" d="M8.4 23.6a19.6 19.6 0 1 1 33.46 13.86c-.92.92-2.18 1.96-3.53 3.08-3.84 3.16-8.5 7-8.86 10.99-.07.8-.66 1.47-1.47 1.47-.81 0-1.4-.66-1.47-1.47-.36-3.98-5.02-7.83-8.86-11a54.91 54.91 0 0 1-3.53-3.07A19.54 19.54 0 0 1 8.4 23.6zm26.46 0a6.86 6.86 0 1 1-13.72 0 6.86 6.86 0 0 1 13.72 0z" fill="url(#a)"/><defs><linearGradient id="a" x1="28" y1="4" x2="28" y2="53" gradientUnits="userSpaceOnUse"><stop stop-color="#FF6122"/><stop offset="1" stop-color="#F22411"/></linearGradient></defs></svg>