<svg width="56" height="56" fill="none" xmlns="http://www.w3.org/2000/svg"><g clip-path="url(#a)"><path d="M52 52H37.4L16.6 4H52v48z" fill="#FC3F1D"/><path d="M52 52H37.4L16.6 4H52v48z" fill="#2B2B2B"/><path fill-rule="evenodd" clip-rule="evenodd" d="M44.53 24.23a5.8 5.8 0 0 0-3.1-3.06c.25-1.14.33-2.07.36-2.67h-2.55c-.02.46-.09 1.14-.26 1.98a13.7 13.7 0 0 0-6.37.76 39.03 39.03 0 0 1-.47-3.82c7.64-.43 12.15-2.23 12.35-2.32l-.97-2.3c-.05.02-4.32 1.71-11.48 2.13 0-1.72-.07-1.7.03-2.28l-2.55-.03c-.05.49-.04.98-.03 2.4h-.23c-2.29.01-4.41-.16-4.91-.2l-.48 2.51c.75.07 3.04.19 5.1.19h.3l.32-.01c.1 1.42.3 3.05.63 4.83-3.38 1.97-6.06 5.79-4.7 8.9a3.92 3.92 0 0 0 3.13 2.35 6 6 0 0 0 .74.05c1.46 0 3.13-.58 4.72-1.56a15.26 15.26 0 0 0 1.96 2.39l1.75-1.81c-.02-.02-.76-.72-1.69-2.1.42-.38.83-.77 1.2-1.2a18.16 18.16 0 0 0 3.4-5.74 3.2 3.2 0 0 1 1.44 1.54c1.02 2.48-.45 5.34-1.82 6.58l1.73 1.83c2.28-2.07 3.85-5.94 2.45-9.34zm-15.5 6.9a1.38 1.38 0 0 1-1.17-.88c-.63-1.44.74-3.77 2.96-5.33a25.15 25.15 0 0 0 2 5.02c-1.36.86-2.75 1.33-3.8 1.18zm6.37-3.4c-.18.21-.37.4-.56.6a23 23 0 0 1-1.71-4.61 11.73 11.73 0 0 1 5.16-.82 15.7 15.7 0 0 1-2.9 4.84z" fill="#fff"/><path d="M4 4h13.6l20.8 48H4V4z" fill="#FC3F1D"/><path d="M4 4h13.6l20.8 48H4V4z" fill="url(#b)" fill-opacity=".4"/><path fill-rule="evenodd" clip-rule="evenodd" d="m18.65 21.53-8.27 19.13h3.38l2.04-5.11h8.37l2.04 5.1h3.38l-8.27-19.12h-2.67zm1.33 3.94 3.09 7.5H16.9l3.08-7.5z" fill="#fff"/></g><defs><linearGradient id="b" x1="66.63" y1="-1.5" x2="15.49" y2="42.56" gradientUnits="userSpaceOnUse"><stop stop-color="#fff"/><stop offset="1" stop-color="#fff" stop-opacity="0"/></linearGradient><clipPath id="a"><circle cx="28" cy="28" r="24"/></clipPath></defs></svg>