<svg width="56" height="56" fill="none" xmlns="http://www.w3.org/2000/svg"><mask id="a" style="mask-type:alpha" maskUnits="userSpaceOnUse" x="4" y="4" width="48" height="48"><path d="M52 28c0 19.2-4.8 24-24 24S4 47.2 4 28 8.8 4 28 4s24 4.8 24 24Z" fill="#07F"/></mask><g mask="url(#a)"><rect x="4" y="4" width="48" height="48" rx="24" fill="#000"/></g><g clip-path="url(#b)"><path d="m20.95 30.88-.09-.05-.05-.03-.05-.02a.48.48 0 0 1 .12-.9.48.48 0 0 1 .4.09l.09.07.04.03.03.03a.46.46 0 0 1-.18.82c-.1.02-.21 0-.3-.04Zm-1.13-1.31a.68.68 0 0 0 .08-.95l-.03-.04-.03-.04-.11-.13a.69.69 0 0 0-1.21.52c.01.18.1.35.24.47l.05.04.04.03.12.1c.24.2.6.2.85 0Zm-2.64-2.07.03.04.03.05.07.1a.8.8 0 0 0 1.45-.23.82.82 0 0 0-.07-.62l-.02-.04-.02-.05-.06-.1a.82.82 0 0 0-1.53.22c-.04.22 0 .44.12.63Zm.66-2.7-.01-.05-.02-.07a.91.91 0 1 0-1.74.56l.01.06.02.05.02.05a.91.91 0 0 0 1.68.15.92.92 0 0 0 .06-.7l-.02-.05Zm-.44-2.14v-.12h-.01a.94.94 0 1 0-1.86.24l.01.05.01.06v.06a.93.93 0 1 0 1.86-.24v-.05Zm-1.06-1.24a.96.96 0 0 0 1-.9v-.1l.01-.08a.96.96 0 0 0-.9-1.01.96.96 0 0 0-1 .92v.11l-.01.06a.96.96 0 0 0 .9 1Zm.22-2.34a.95.95 0 0 0 1.17-.66l.02-.06.02-.05v-.05a.95.95 0 0 0-1.36-1.1.94.94 0 0 0-.45.57l-.02.05-.01.05-.02.06a.96.96 0 0 0 .65 1.19Zm.67-2.27a.93.93 0 0 0 1.25-.45l.03-.06.02-.05.02-.02a.95.95 0 0 0-.8-1.35.93.93 0 0 0-.9.53l-.02.06-.02.03-.02.05a.95.95 0 0 0 .44 1.26Zm2.28-2.32.07-.1.03-.04.03-.05a.88.88 0 0 0-.48-1.32.85.85 0 0 0-.91.3l-.07.08-.04.05-.03.05a.88.88 0 0 0 .5 1.4.87.87 0 0 0 .9-.37Zm1.29-1.7.11-.13.04-.04.03-.04a.76.76 0 0 0-.18-1.16.74.74 0 0 0-.82.06l-.13.1-.05.04-.05.04a.78.78 0 0 0-.04 1.18c.31.29.8.27 1.09-.05Zm1.57-1.55.1-.09.04-.03.04-.04a.55.55 0 0 0-.2-.95.54.54 0 0 0-.42.05l-.11.06-.05.03-.05.03a.58.58 0 0 0 .23 1.07.56.56 0 0 0 .42-.13Zm2.15 23.5h.05l.06-.02.1-.02a.46.46 0 0 0 .31-.64.46.46 0 0 0-.43-.27h-.22a.48.48 0 0 0-.37.76.48.48 0 0 0 .5.2ZM22.1 35h.26a.67.67 0 0 0 .65-.56.67.67 0 0 0-.54-.78h-.04l-.05-.02-.17-.03a.7.7 0 0 0-.8.7c0 .38.31.7.69.69Zm-2.43-.43.06.01.05.02.11.03a.81.81 0 0 0 .98-.49.82.82 0 0 0-.45-1.06l-.05-.01-.04-.02-.12-.05a.82.82 0 0 0-1.1.54.83.83 0 0 0 .56 1.03Zm-2.28-1 .04.03.05.03.05.02a.9.9 0 0 0 1.25-.28.93.93 0 0 0-.27-1.28l-.04-.02-.04-.03-.07-.04a.91.91 0 0 0-1.26.3.93.93 0 0 0 .29 1.27ZM15.42 32l.04.04.04.04.04.03a.93.93 0 0 0 1.31-.04.95.95 0 0 0-.04-1.34l-.03-.03-.04-.03-.05-.06a.93.93 0 0 0-1.33.06.95.95 0 0 0 .06 1.33Zm-1.68-1.88.04.05.03.04.04.05a.95.95 0 0 0 1.32.18.97.97 0 0 0 .2-1.34l-.03-.04-.03-.04-.05-.06v-.01a.95.95 0 0 0-1.7.46c-.04.25.03.5.18.71Zm-.72-3.52a.96.96 0 0 0-.49 1.25l.02.06.03.05.02.05a.94.94 0 0 0 1.75-.04.97.97 0 0 0-.02-.73l-.02-.06-.02-.05-.03-.04a.94.94 0 0 0-1.24-.5Zm-.6-2.25a.95.95 0 0 0-.68 1.16l.01.05.01.04.02.05a.94.94 0 0 0 1.72.24.95.95 0 0 0 .1-.72l-.03-.07v-.04l-.02-.03a.93.93 0 0 0-1.14-.68Zm-.97-1.22v.13a.87.87 0 0 0 .96.78.88.88 0 0 0 .78-.96l-.02-.13v-.1a.87.87 0 0 0-.88-.78.87.87 0 0 0-.84.89v.18Zm.84-1.45a.77.77 0 0 0 .8-.74v-.18l.01-.05v-.06a.75.75 0 0 0-.88-.77.74.74 0 0 0-.59.59l-.03.16-.02.06v.05a.78.78 0 0 0 .71.94Zm.36-2.5a.57.57 0 0 0 .66-.45l.02-.13v-.06l.02-.05a.55.55 0 0 0-.56-.65.55.55 0 0 0-.5.37l-.04.11-.01.06-.02.05a.57.57 0 0 0 .43.76Zm17.27 16.16.03-.04.04-.05.06-.08a.46.46 0 0 0-.34-.74.45.45 0 0 0-.33.12l-.04.03-.03.03-.1.08a.48.48 0 0 0 .2.82.47.47 0 0 0 .51-.17Zm-1.69 1.75.04-.04.05-.03.11-.1a.68.68 0 0 0-.03-1.05.66.66 0 0 0-.74-.05l-.04.03-.04.02-.15.09a.7.7 0 0 0 .04 1.22.69.69 0 0 0 .76-.1Zm-1.48.14a.81.81 0 0 0-1.03-.52l-.05.02-.04.02-.12.04a.83.83 0 0 0-.04 1.55.82.82 0 0 0 .63 0l.05-.03.05-.02.1-.05a.82.82 0 0 0 .45-1Zm-3.12-.03h-.05l-.05.01-.07.01h-.01a.92.92 0 0 0-.78 1.04c.07.51.53.86 1.03.8l.06-.02h.06l.05-.01a.92.92 0 0 0 .67-1.37.91.91 0 0 0-.91-.46Zm-2.16.07h-.17a.94.94 0 0 0-.93 1.26.94.94 0 0 0 .84.62h.17a.94.94 0 0 0 .1-1.88Zm-2.15-.31-.05-.01-.05-.02-.07-.01a.97.97 0 0 0-.42 1.88l.05.01.06.01.05.02a.95.95 0 0 0 1.14-.72.96.96 0 0 0-.71-1.16Zm-1.98-.75-.06-.03-.04-.02-.05-.03a.94.94 0 0 0-1.26.44.96.96 0 0 0 .42 1.28l.05.02.06.03.04.02a.94.94 0 0 0 1.28-.43.96.96 0 0 0-.44-1.28Zm-1.88-1.1-.05-.05-.04-.02-.03-.02a.92.92 0 0 0-1.3.22.95.95 0 0 0 .22 1.32l.04.04.03.02.05.03a.93.93 0 0 0 1.3-.22.95.95 0 0 0-.22-1.33Zm-1.64-1.35-.1-.09-.03-.03-.04-.04a.86.86 0 0 0-1.45.57c-.02.23.06.46.21.63l.08.09.03.04.04.04.05.06a.87.87 0 0 0 1.47-.65c0-.23-.1-.45-.26-.62Zm-1.44-1.57-.1-.15-.04-.04-.03-.04a.74.74 0 0 0-1.3.24.7.7 0 0 0 .06.57l.07.15.03.05.03.05a.76.76 0 0 0 1.44-.26.78.78 0 0 0-.16-.57Zm-1.24-1.84-.07-.11-.02-.05-.03-.04a.54.54 0 0 0-.97.04.55.55 0 0 0-.02.42l.05.11.02.06.01.05a.57.57 0 0 0 1.08-.04.57.57 0 0 0-.05-.44Zm23.3 1.95v-.22a.46.46 0 0 0-.58-.43.46.46 0 0 0-.34.39v.1l-.03.12a.48.48 0 0 0 .68.5.48.48 0 0 0 .27-.46Zm-.18 2.43.01-.06.01-.05.03-.15a.67.67 0 0 0-1.29-.34l-.02.05-.01.04-.06.16a.7.7 0 0 0 1.05.8.69.69 0 0 0 .28-.45Zm-.84 2.34.02-.05.03-.05.05-.1a.82.82 0 0 0-.6-1.17.8.8 0 0 0-.82.38l-.02.04-.03.04-.07.1a.83.83 0 0 0 .65 1.27.81.81 0 0 0 .79-.46Zm-1.38 2.1.04-.04.04-.04.04-.04a.93.93 0 0 0-.37-1.48.9.9 0 0 0-.98.23l-.04.04-.03.03-.05.06a.93.93 0 0 0 .37 1.5.9.9 0 0 0 .98-.26Zm-1.85 1.7.05-.04.04-.03.05-.03a.95.95 0 0 0-.43-1.68.93.93 0 0 0-.7.17l-.04.03-.04.03-.06.04v.01a.95.95 0 0 0-.18 1.32c.32.42.9.5 1.31.18Zm-2.84-.45-.04.02-.05.02-.06.03h-.01a.97.97 0 0 0 .15 1.78.95.95 0 0 0 .73-.06l.05-.03.05-.02.05-.03a.97.97 0 0 0-.5-1.81.95.95 0 0 0-.37.1Zm-1.99.7-.07.02-.04.01-.05.01a.95.95 0 0 0-.54 1.5.94.94 0 0 0 .99.36l.05-.01.06-.01.05-.02a.96.96 0 0 0-.45-1.86Zm-2.14.38h-.12l-.03.01c-.52.04-.9.5-.86 1.02.04.52.5.91 1 .87h.1l.06-.01a.95.95 0 0 0 .53-1.67.94.94 0 0 0-.68-.22Zm-2.12.04-.12-.01h-.05l-.06-.01a.87.87 0 0 0-.19 1.73l.12.01.06.01.05.01h.07a.87.87 0 0 0 .72-1.44.88.88 0 0 0-.6-.3Zm-2.1-.28-.17-.04h-.05l-.05-.02a.74.74 0 0 0-.86.45.75.75 0 0 0 .42.98l.15.07.05.02.06.02a.77.77 0 0 0 1.04-.55.78.78 0 0 0-.59-.93Zm-2.12-.6-.12-.04-.05-.02-.05-.02a.54.54 0 0 0-.67.24.55.55 0 0 0 .2.76l.11.06.05.03.05.03a.57.57 0 0 0 .82-.3.57.57 0 0 0-.34-.74Zm18.25-13.2.02.05.07.1a.47.47 0 0 0 .72.1.48.48 0 0 0 .03-.68l-.04-.04-.03-.04-.08-.08a.45.45 0 0 0-.78.21c-.02.12 0 .25.06.35l.03.04Zm.93 1.94.02.05.06.16a.68.68 0 0 0 1 .36.7.7 0 0 0 .24-.96l-.03-.05-.03-.05-.07-.13a.66.66 0 0 0-1.18.06.67.67 0 0 0-.02.52l.01.04Zm.53 2.14.02.13a.82.82 0 0 0 1 .68.83.83 0 0 0 .61-1l-.01-.05-.01-.06-.03-.11a.8.8 0 1 0-1.59.32v.04l.01.05Zm1.05 1.2a.92.92 0 0 0-.95.87v.1l-.01.07a.92.92 0 0 0 .88.96.92.92 0 0 0 .95-.89v-.15a.92.92 0 0 0-.86-.95Zm-.13 2.33a.93.93 0 0 0-1.12.7l-.01.04-.01.05-.02.08a.93.93 0 1 0 1.82.41l.02-.05v-.06l.02-.05a.94.94 0 0 0-.7-1.12Zm-.55 2.28a.95.95 0 0 0-1.25.5l-.02.05-.02.04-.03.07a.97.97 0 0 0 .88 1.34.95.95 0 0 0 .88-.59l.02-.05.02-.06.02-.05a.96.96 0 0 0-.5-1.25Zm-2.33 2.33-.04.06-.03.04-.03.04a.96.96 0 0 0 .2 1.34.94.94 0 0 0 1.33-.2l.03-.05.04-.05.03-.04a.96.96 0 0 0-.54-1.5.94.94 0 0 0-.99.36Zm-1.4 1.69-.05.04-.03.04-.03.02a.95.95 0 0 0 .66 1.62.93.93 0 0 0 .66-.27l.04-.04.03-.03.04-.04a.95.95 0 0 0-.3-1.55.93.93 0 0 0-1.02.2Zm-1.6 1.4-.1.07-.04.03-.04.03a.88.88 0 0 0 0 1.4.86.86 0 0 0 .95.05l.1-.07.05-.03.05-.03a.88.88 0 0 0 0-1.5.87.87 0 0 0-.97.04Zm-1.78 1.15-.16.08-.04.03-.05.02a.76.76 0 0 0 0 1.34.74.74 0 0 0 .57.04l.16-.05.06-.02.05-.02a.78.78 0 0 0 .26-1.33.76.76 0 0 0-.85-.09Zm-2 .92-.13.04-.05.02-.05.02a.55.55 0 0 0-.28.81.55.55 0 0 0 .56.25l.12-.02.06-.01.05-.01a.57.57 0 0 0-.07-1.14.57.57 0 0 0-.22.04ZM33.78 22h-.06l-.05-.01-.1-.02a.45.45 0 0 0-.5.32.46.46 0 0 0 .3.58l.04.02.05.01.11.04a.48.48 0 0 0 .62-.4.48.48 0 0 0-.41-.54Zm1.54 1.74.04.02.04.02.15.09a.69.69 0 0 0 .99-.38.7.7 0 0 0-.42-.88l-.05-.02-.05-.02-.15-.05a.66.66 0 0 0-.8.3.68.68 0 0 0 .25.92Zm2.93.11-.04-.03-.05-.04-.09-.06a.8.8 0 0 0-1.08.11.82.82 0 0 0 .06 1.16l.04.03.04.04.1.08a.82.82 0 0 0 1.2-.13.83.83 0 0 0-.18-1.16Zm1.66 3.03a.93.93 0 0 0 .15-1.3l-.03-.04-.03-.05-.04-.04a.9.9 0 0 0-1.62.44c-.03.25.03.5.18.69l.02.03.03.04.05.06a.91.91 0 0 0 1.29.17Zm-.25 1.55.02.04.02.04.04.07a.93.93 0 0 0 1.72-.14.95.95 0 0 0-.06-.72l-.03-.05-.02-.05-.03-.05a.93.93 0 0 0-1.71.14c-.08.23-.06.5.05.72Zm.82 2.08.01.05.02.07v.01a.95.95 0 1 0 1.83-.58l-.02-.05-.02-.06-.01-.05a.95.95 0 0 0-1.75-.17.96.96 0 0 0-.08.74l.02.04Zm2.22 1.99v-.06a.95.95 0 0 0-1.01-.9.95.95 0 0 0-.88 1.02v.17a.95.95 0 1 0 1.9-.12v-.11Zm-.88 1.4a.94.94 0 0 0-1.02.86v.14l-.01.03a.94.94 0 1 0 1.87.18v-.09l.01-.06a.94.94 0 0 0-.85-1.03Zm-.3 2.33a.87.87 0 0 0-1.05.64l-.03.13v.05l-.02.05a.87.87 0 0 0 .56 1.03.86.86 0 0 0 1.09-.55l.03-.1.02-.06.02-.06.02-.07a.88.88 0 0 0-.63-1.06Zm-.68 2.26a.76.76 0 0 0-1 .43l-.07.16-.02.05-.02.05a.76.76 0 0 0 .3.92c.34.22.8.12 1.02-.24l.09-.14.03-.05.03-.05a.78.78 0 0 0-.36-1.13Zm-1.18 2.22a.56.56 0 0 0-.77.21l-.07.12-.03.04-.02.05a.55.55 0 0 0 .52.82.54.54 0 0 0 .37-.2l.08-.09.04-.04.03-.05a.57.57 0 0 0-.15-.86Zm-10.52-20.2.05-.02.04-.02.12-.05a.49.49 0 0 0 .09-.84.48.48 0 0 0-.54-.01l-.04.03-.05.03-.09.06a.46.46 0 0 0-.17.56c.1.24.36.35.6.25Zm2.05-.61.05-.01.04-.01.17-.03a.7.7 0 0 0 .16-1.32.69.69 0 0 0-.53-.02l-.05.02-.05.02-.14.06a.67.67 0 0 0-.42.74c.06.37.4.61.77.55Zm2.32-1.82h-.11l-.12.01a.81.81 0 0 0-.75.8.82.82 0 0 0 .79.84h.3a.83.83 0 0 0-.1-1.65Zm2.43.14-.05-.01-.05-.02a.92.92 0 0 0-.4 1.8l.05.02h.05l.07.03c.5.1.99-.22 1.1-.71a.92.92 0 0 0-.71-1.1l-.06-.01Zm2.39.76-.05-.02-.05-.02a.93.93 0 0 0-1.22.5.95.95 0 0 0 .49 1.23l.04.02.05.02.07.03a.93.93 0 0 0 1.23-.5.95.95 0 0 0-.5-1.24l-.06-.02Zm2.26 1.2-.05-.02-.04-.03-.05-.04a.95.95 0 0 0-1.31.29.97.97 0 0 0 .27 1.33l.04.03.04.02.07.05a.95.95 0 0 0 1.32-.3.97.97 0 0 0-.29-1.32Zm1.91 1.72-.04-.04-.04-.04-.04-.04a.94.94 0 0 0-1.34-.03.96.96 0 0 0-.02 1.35l.04.05.04.03.03.04c.36.38.96.4 1.34.03a.96.96 0 0 0 .03-1.35Zm1.54 1.93L44 23.8l-.01-.02-.04-.05a.93.93 0 0 0-1.7.37c-.04.24.02.5.16.7l.04.06.03.04.01.03a.93.93 0 0 0 1.3.24.95.95 0 0 0 .25-1.32Zm.65 3.42a.87.87 0 0 0 .49-1.12l-.05-.11-.02-.06-.02-.05a.87.87 0 0 0-1.63.04.88.88 0 0 0 .04.66l.06.12.02.05.02.04a.86.86 0 0 0 1.09.43Zm1.16 1.28-.03-.17v-.05l-.01-.06a.77.77 0 0 0-1.45-.25c-.09.18-.1.4-.05.6l.06.16.01.05.02.05a.74.74 0 0 0 1.45-.33Zm.14 2.23v-.11a.57.57 0 1 0-1.13.1l.03.12v.06l.01.05a.55.55 0 0 0 1.09-.1v-.12ZM24.4 21.44l.02-.04.03-.05.05-.1a.48.48 0 0 0-.28-.69.48.48 0 0 0-.6.32l-.01.05-.02.06-.03.1a.46.46 0 0 0 .22.54c.23.12.5.03.62-.2Zm1.18-1.8.03-.03.03-.04.11-.13a.7.7 0 0 0-.45-1.14.69.69 0 0 0-.68.35l-.03.05-.03.05-.07.13a.68.68 0 0 0 .15.85c.29.24.7.2.94-.08Zm1.53-1.5.03-.03.04-.03.1-.08a.84.84 0 0 0-.18-1.4.82.82 0 0 0-.9.15l-.04.04-.04.04-.08.08a.82.82 0 0 0-.07 1.1.8.8 0 0 0 1.14.13Zm1.05-2.87-.05.03-.05.02a.93.93 0 0 0 .15 1.7.91.91 0 0 0 .7-.06l.04-.02.04-.03.07-.03a.93.93 0 0 0-.51-1.74.91.91 0 0 0-.34.1l-.05.03Zm2.3-.96-.05.02-.05.01a.94.94 0 0 0 .55 1.8l.04-.01.05-.01.07-.03a.94.94 0 0 0-.55-1.8l-.06.02Zm1.52.54a.96.96 0 0 0 1.06.85h.04l.05-.01.08-.01a.96.96 0 0 0 .47-1.72.96.96 0 0 0-.71-.2l-.06.01-.05.01h-.06a.96.96 0 0 0-.82 1.07Zm2.33-.18a.95.95 0 0 0 .83 1.05h.07l.05.01h.05a.95.95 0 0 0 1.04-.83.95.95 0 0 0-.83-1.06h-.06l-.05-.01-.06-.01a.95.95 0 0 0-1.04.85Zm2.98 1.44.06.02.05.01h.03a.93.93 0 0 0 1.15-.65.95.95 0 0 0-.65-1.17l-.06-.01-.03-.01-.05-.02a.94.94 0 0 0-1.16.67.95.95 0 0 0 .66 1.16Zm2 .7.11.05.05.02.05.02c.4.18.89.02 1.1-.38a.87.87 0 0 0-.34-1.18l-.1-.05-.05-.03-.05-.03a.87.87 0 0 0-1.21.41.88.88 0 0 0 .44 1.16Zm1.88.98.15.1.04.02.05.03a.74.74 0 0 0 .95-.13.76.76 0 0 0-.06-1.06l-.12-.12-.04-.03-.04-.04a.76.76 0 0 0-1.17.16.78.78 0 0 0 .24 1.07Zm1.89 1.38.04.03.04.04a.54.54 0 0 0 .7 0 .55.55 0 0 0 .07-.78l-.08-.1-.03-.04-.04-.04a.56.56 0 0 0-.87 0 .58.58 0 0 0 .07.8l.1.09Zm-22.64 6.19.02.04.05.1a.45.45 0 0 0 .8.07.4.4 0 0 0 .06-.34v-.05l-.02-.05-.02-.12a.48.48 0 0 0-.91-.08.48.48 0 0 0 0 .37l.02.05Zm.7-2.27v-.27a.7.7 0 0 0-.82-.68.7.7 0 0 0-.55.81l.01.06v.05l.04.15a.67.67 0 0 0 .65.55c.37 0 .67-.3.67-.67Zm-1.37-2.63v.06l-.01.06-.01.11a.81.81 0 0 0 1.6.25v-.05l.02-.04.02-.13a.83.83 0 0 0-1.03-.96.82.82 0 0 0-.59.7Zm2.2-1.59.02-.04.02-.05.03-.07a.93.93 0 0 0-.85-1.28.91.91 0 0 0-.84.58l-.02.06-.02.05-.02.05a.93.93 0 0 0 .84 1.27.91.91 0 0 0 .85-.57Zm-.27-1.66a.93.93 0 0 0 1.29-.26l.02-.04.03-.05.04-.06a.95.95 0 0 0-.62-1.44.93.93 0 0 0-.95.42l-.03.05-.03.04-.03.05a.95.95 0 0 0 .28 1.3Zm1.29-1.95a.95.95 0 0 0 1.35-.04l.03-.03.03-.04.06-.05a.97.97 0 0 0-.37-1.57.95.95 0 0 0-1.03.26l-.04.04-.04.04-.04.04a.97.97 0 0 0 .05 1.35Zm2.98-1.39.05-.04.05-.03.04-.02a.96.96 0 0 0-.71-1.74.94.94 0 0 0-.34.15l-.05.03-.05.03-.04.03a.96.96 0 0 0 .34 1.73.94.94 0 0 0 .7-.14Zm1.89-1.1.06-.02.04-.02.03-.02a.94.94 0 0 0 .25-1.55.93.93 0 0 0-1.03-.17l-.06.03-.03.01-.05.02a.95.95 0 0 0 .43 1.81c.12 0 .24-.03.36-.08Zm1.97-.76.12-.03.05-.02.05-.01a.87.87 0 0 0 .24-1.56.86.86 0 0 0-.65-.13l-.11.02-.06.02h-.05l-.07.02a.88.88 0 0 0 .14 1.72c.11.01.23 0 .34-.03Zm2.07-.47.17-.02h.05l.06-.01a.75.75 0 0 0 .64-.72.75.75 0 0 0-.72-.78h-.22L31.8 10a.77.77 0 0 0-.78.88c.05.42.44.72.86.66Zm2.2-.16h.23c.26 0 .5-.2.54-.46a.55.55 0 0 0-.44-.64l-.13-.02-.05-.01-.06-.01a.57.57 0 0 0-.66.56c0 .31.25.57.56.57Z" fill="#fff"/></g><defs><clipPath id="b"><path fill="#fff" transform="translate(10 10)" d="M0 0h36v36H0z"/></clipPath></defs></svg>